<svg xmlns="http://www.w3.org/2000/svg" xmlns:xlink="http://www.w3.org/1999/xlink" class="logo" width="800" height="117.326" viewBox="0 0 800 117.326">
  <title>AMI AssetTrack®</title>
  <defs>
    <clipPath id="a" transform="translate(-1 -0.6)">
    <rect x="1" y="0.365" width="799.997" height="117.358" fill="none">
    </rect>
    </clipPath>
  </defs>
  <path d="M204.016,115.4,232.235,1.359h29.936L289.221,115.4H265.47l-5.834-28.975H233.661L227.767,115.4H204.016M237.146,69h19.005L249.973,38.9c-1.109-5.543-1.585-10.931-2.217-16.47-.159-2.69-.477-3.955-.794-6.489h-.318c-.314,2.535-.632,3.8-.791,6.489-.625,5.54-1.1,10.927-2.21,16.47Z" transform="translate(-1 -0.6)" fill="#317688"></path>
  <g clip-path="url(#a)">
    <path d="M312.5,85.936c-1.585,16.47,4.752,16,9.508,16,5.861,0,9.974-4.271,8.548-9.975-.311-5.07-6.172-7.923-10.133-10.614l-11.242-7.757c-10.3-7.132-16.954-15.372-16.954-28.2,0-13.777,10.931-21.7,30.73-21.7,19.955,0,29.138,10.458,28.662,29.622H331.027c.477-9.981-2.369-13.783-9.5-13.783-4.911,0-8.713,2.217-8.713,7.287,0,5.229,3.8,7.6,7.764,10.3l16.785,11.4c5.229,3.008,13.462,11.559,14.094,17.579,1.744,15.52-2.052,31.68-30.565,31.68-10.924,0-31.356-4.595-28.986-31.839H312.5" transform="translate(-1 -0.6)" fill="#317688"></path>
    <path d="M379.647,85.936c-1.582,16.47,4.756,16,9.508,16,5.854,0,9.974-4.271,8.548-9.975-.318-5.07-6.172-7.923-10.133-10.614l-11.248-7.757c-10.292-7.132-16.947-15.372-16.947-28.2,0-13.777,10.934-21.7,30.73-21.7,19.955,0,29.138,10.458,28.665,29.622H398.179c.473-9.981-2.376-13.783-9.5-13.783-4.911,0-8.713,2.217-8.713,7.287,0,5.229,3.8,7.6,7.764,10.3l16.788,11.4c5.229,3.008,13.459,11.559,14.094,17.579,1.741,15.52-2.062,31.68-30.565,31.68-10.934,0-31.366-4.595-28.986-31.839h20.587" transform="translate(-1 -0.6)" fill="#317688"></path>
    <path d="M426.625,56.8c-.943-21.067,9.822-33.11,30.095-33.11,28.672,0,31.673,14.889,31.673,39.282V75.011H447.216V88c.155,11.719,4.593,13.936,10.772,13.936,7.6,0,9.815-5.54,9.5-16.788h20.587c.794,19.955-7.439,32.63-28.5,32.63-23.758,0-33.424-11.248-32.948-37.541V56.8M467.8,59.166V51.409c-.155-9.031-2.528-11.884-10.765-11.884-10.3,0-9.822,7.923-9.822,16v3.637Z" transform="translate(-1 -0.6)" fill="#317688"></path><path d="M530.031,115.721c-12.195,1.426-32.613,2.522-32.613-14.107l-.159-100.1h20.749V28.4h13.712V43.455H518.008v53.1c.477,3.8,9.487,3.327,12.022,3.01v16.16" transform="translate(-1 -0.6)" fill="#317688"></path>
  </g>
  <polyline points="552.852 116.857 552.852 13.955 533.736 13.955 533.736 0.516 586.5 0.516 586.5 13.955 566.916 13.955 566.916 116.857 552.852 116.857" fill="#e77d33"></polyline>
  <path d="M587.78,117.418V25.4h13.584v5.11c1.372-1.477,2.93-2.072,5.1-3.38,4.9-2.957,12.715-4.012,12.715-4.012l.051,15.453-2.383.642a33.36,33.36,0,0,0-4.336,1.47,24.308,24.308,0,0,0-3.532,2.224c-3.319,2.18-7.432,5.773-7.432,11.542v62.965H587.78" transform="translate(-1 -0.6)" fill="#e77d33"></path>
  <g clip-path="url(#a)">
    <path d="M667.128,117.419a15.147,15.147,0,0,1-7.757-1.467,8.953,8.953,0,0,1-3.982-3.485c-1.186.777-2.434,1.551-3.748,2.3a22.525,22.525,0,0,1-11.4,2.65,20.08,20.08,0,0,1-9.21-1.974,17.69,17.69,0,0,1-6.317-5.4,21.964,21.964,0,0,1-3.491-7.552,33.67,33.67,0,0,1-1.044-8.37,31.872,31.872,0,0,1,1.937-11.644,27.6,27.6,0,0,1,5-8.352,32.3,32.3,0,0,1,6.709-5.77,77.164,77.164,0,0,1,7.03-4c2.065-1.1,3.816-2.025,5.168-2.758s2.467-1.355,3.4-1.9c.909-.541,1.754-1.055,2.521-1.551.416-.264.892-.6,1.413-.99V48.867c0-1.791-.081-3.519-.237-5.124a7.5,7.5,0,0,0-.926-3.11A4.642,4.642,0,0,0,650.2,38.9a10.261,10.261,0,0,0-4.516-.767c-2.7,0-4.08.541-4.759.99a5.873,5.873,0,0,0-2.2,2.785,16.1,16.1,0,0,0-1.044,5.32c-.112,2.4-.166,1.578-.166,4.36v3.221H623.749V51.588a58.862,58.862,0,0,1,.358-6.53,27.4,27.4,0,0,1,2.42-9.724,17.392,17.392,0,0,1,7.051-7.6c3.2-1.91,7.436-2.836,12.959-2.836,4.965,0,8.8.879,11.732,2.69a17.388,17.388,0,0,1,6.331,6.395,18.47,18.47,0,0,1,2.244,7.405c.179,2.109.264,3.944.264,5.435l.02,70.6M652.181,73.294c-1.024.568-2.4,1.308-4.12,2.231-2.031,1.176-4.046,2.376-5.945,3.552a18.272,18.272,0,0,0-4.279,3.623,16.19,16.19,0,0,0-2.853,4.787,18.946,18.946,0,0,0-1.041,6.806,13.317,13.317,0,0,0,2.045,7.374c.686,1.076,2.035,2.5,5.8,2.5a11.312,11.312,0,0,0,7.037-1.961,41.327,41.327,0,0,0,4.708-4.231V72.533S652.665,73.024,652.181,73.294Z" transform="translate(-1 -0.6)" fill="#e77d33"></path>
    <path d="M698.635,117.926a24.571,24.571,0,0,1-7.71-1.1,22.188,22.188,0,0,1-5.459-2.608,17.511,17.511,0,0,1-3.519-3.043,14.243,14.243,0,0,1-1.44-1.862,20.9,20.9,0,0,1-3.88-10.179A90.885,90.885,0,0,1,676.1,89.7V50.229c0-1.139.118-2.907.358-5.408a24.008,24.008,0,0,1,2.423-8.338,20.428,20.428,0,0,1,6.8-7.686c3.191-2.254,7.6-3.393,13.118-3.393,5.367,0,9.7,1.065,12.874,3.174a19.623,19.623,0,0,1,6.949,7.629,25.489,25.489,0,0,1,2.6,8.646,63.913,63.913,0,0,1,.443,6.736v7.324H708.255V53.119c0-1.521-.02-2.819-.078-3.9a12.237,12.237,0,0,0-.26-2.238c-.169-.744-.368-1.551-.591-2.44a10.175,10.175,0,0,0-2.991-4.742,7.42,7.42,0,0,0-5.11-1.663c-2.4,0-4.191.45-5.293,1.335a9.149,9.149,0,0,0-2.812,3.539,12.718,12.718,0,0,0-1.1,4.2c-.108,1.6-.166,2.782-.166,3.532V87.487q0,3.327.166,6.819a15.728,15.728,0,0,0,1.193,5.433,8.374,8.374,0,0,0,2.917,3.6c1.224.878,3.289,1.34,5.949,1.34a8.7,8.7,0,0,0,4.992-1.168,7.761,7.761,0,0,0,2.565-2.878,9.707,9.707,0,0,0,.967-3.433c.1-1.419.162-2.5.162-3.248V81.69h13.76v10.9c0,1.512-.118,3.552-.358,6.238A21.954,21.954,0,0,1,719.5,107.4a20.539,20.539,0,0,1-7.189,7.387c-3.326,2.106-7.794,3.136-13.672,3.136" transform="translate(-1 -0.6)" fill="#e77d33"></path>
  </g>
  <polyline points="766.079 116.817 748.97 75.447 744.572 82.68 744.572 116.817 730.823 116.817 730.823 0 744.4 0 744.4 56.736 764.048 24.633 779.91 24.633 757.876 60.957 781.039 116.817 766.079 116.817" fill="#e77d33"></polyline>
  <polyline points="180.157 114.738 207.934 0.199 138.838 0.199 138.838 114.738" fill="#969289"></polyline>
  <rect x="66.902" y="0.199" width="66.027" height="114.539" fill="#969289"></rect>
  <g clip-path="url(#a)">
    <rect y="0.199" width="61.109" height="114.539" fill="#969289"></rect>
  </g>
  <path d="M44.209,101.013l-3.681-8.965H23.26l-3.816,8.965h-4.3l15.143-34.7h3.855l14.606,34.7H44.209M39,88.259,32.059,71.414,24.9,88.259Z" transform="translate(-1 -0.6)" fill="#fff"></path>
  <polyline points="112.886 100.413 112.886 72.197 100.681 100.413 98.694 100.413 86.29 72.173 86.29 100.413 82.22 100.413 82.22 65.714 87.709 65.714 99.715 93.356 111.714 65.714 116.963 65.714 116.963 100.413 112.886 100.413" fill="#fff"></polyline>
  <rect x="160.773" y="65.714" width="4.073" height="34.698" fill="#fff"></rect>
  <path d="M785.473,8.565a7.766,7.766,0,1,1,15.527,0,7.766,7.766,0,1,1-15.527,0Zm14.576,0a6.8,6.8,0,1,0-13.6,0,6.8,6.8,0,1,0,13.6,0Zm-2.941,4.459h-1.258L793.379,8.91h-1.944v4.114h-1.056V4.106h3.773a3.807,3.807,0,0,1,2.106.447,2.221,2.221,0,0,1,.974,1.924c0,1.743-1.195,2.391-2.736,2.433Zm-4.053-4.966c1.215,0,3.1.2,3.1-1.6,0-1.378-1.175-1.54-2.248-1.54h-2.472V8.058Z" transform="translate(-1 -0.6)" fill="#e77d33"></path>
</svg>